<svg viewBox="0 0 640 400" data-background-color="#4b91f1" preserveAspectRatio="xMidYMid meet" height="400" width="640" xmlns="http://www.w3.org/2000/svg" xmlns:xlink="http://www.w3.org/1999/xlink"><rect width="640" height="400" x="0" y="0" opacity="1" fill="#4b91f1" data-fill-palette-color="background" id="background"></rect><g id="tight-bounds" transform="matrix(1,0,0,1,188.25135549309297,76.4)"><svg viewBox="0 0 263.49728901381405 247.2" height="247.2" width="263.49728901381405"><g><svg viewBox="0 0 395.52 371.05711548658167" height="247.2" width="263.49728901381405"><g transform="matrix(1,0,0,1,0,262.76025667989177)"><svg viewBox="0 0 395.52 108.2968588066899" height="108.2968588066899" width="395.52"><g id="textblocktransform"><svg viewBox="0 0 395.52 108.2968588066899" height="108.2968588066899" width="395.52" id="textblock"><g><svg viewBox="0 0 395.52 75.66540086118513" height="75.66540086118513" width="395.52"><g transform="matrix(1,0,0,1,0,0)"><svg width="395.52" viewBox="3.450000047683716 -36.5 243.8300018310547 46.650001525878906" height="75.66540086118513" data-palette-color="#ffffff"><path d="M8.25 0L3.45 0 3.45-25.9Q3.45-28.55 4.65-30.6 5.85-32.65 7.9-33.83 9.95-35 12.55-35L12.55-35 25-35 25-30.75 13.1-30.75Q10.9-30.75 9.58-29.38 8.25-28 8.25-25.9L8.25-25.9 8.25-18.8 23.15-18.8 23.15-14.55 8.25-14.55 8.25 0ZM35 0L30.4 0 30.4-36.5 35-36.5 35 0ZM52.9 0.6L52.9 0.6Q49.2 0.6 46.5-1.18 43.8-2.95 42.35-6 40.9-9.05 40.9-12.75L40.9-12.75Q40.9-16.5 42.5-19.53 44.1-22.55 47.1-24.33 50.1-26.1 54.3-26.1L54.3-26.1Q58.35-26.1 61.25-24.35 64.15-22.6 65.72-19.6 67.3-16.6 67.3-12.9L67.3-12.9 67.3 0 62.65 0 62.65-5.2 62.55-5.2Q61.8-3.75 60.52-2.43 59.25-1.1 57.34-0.25 55.45 0.6 52.9 0.6ZM54.1-3.35L54.1-3.35Q56.59-3.35 58.52-4.58 60.45-5.8 61.52-7.98 62.6-10.15 62.6-12.85L62.6-12.85Q62.6-15.5 61.57-17.6 60.55-19.7 58.65-20.93 56.75-22.15 54.2-22.15L54.2-22.15Q51.5-22.15 49.57-20.9 47.65-19.65 46.62-17.53 45.6-15.4 45.6-12.7L45.6-12.7Q45.6-10.1 46.6-7.98 47.6-5.85 49.5-4.6 51.4-3.35 54.1-3.35ZM91.79 10.15L78.44 10.15 78.44 6.2 90.94 6.2Q92.79 6.2 93.82 5.1 94.84 4 94.84 2.2L94.84 2.2 94.84-4.8 94.74-4.8Q93.79-3.35 92.44-2.2 91.09-1.05 89.34-0.38 87.59 0.3 85.39 0.3L85.39 0.3Q81.79 0.3 79.04-1.38 76.29-3.05 74.74-6.03 73.19-9 73.19-12.85L73.19-12.85Q73.19-16.6 74.74-19.6 76.29-22.6 79.22-24.35 82.14-26.1 86.29-26.1L86.29-26.1Q90.29-26.1 93.24-24.4 96.19-22.7 97.82-19.68 99.44-16.65 99.44-12.6L99.44-12.6 99.44 2.5Q99.44 6 97.39 8.08 95.34 10.15 91.79 10.15L91.79 10.15ZM86.24-3.65L86.24-3.65Q88.79-3.65 90.72-4.85 92.64-6.05 93.72-8.13 94.79-10.2 94.79-12.8L94.79-12.8Q94.79-15.45 93.74-17.55 92.69-19.65 90.79-20.88 88.89-22.1 86.24-22.1L86.24-22.1Q83.64-22.1 81.77-20.88 79.89-19.65 78.87-17.53 77.84-15.4 77.84-12.75L77.84-12.75Q77.84-10.25 78.87-8.18 79.89-6.1 81.77-4.88 83.64-3.65 86.24-3.65ZM125.64 10.15L120.84 10.15 120.84-0.3 125.64-0.3 125.64 10.15ZM123.24 0.65L123.24 0.65Q119.09 0.65 115.74-0.78 112.39-2.2 110.02-4.7 107.64-7.2 106.34-10.5 105.04-13.8 105.04-17.55L105.04-17.55Q105.04-21.3 106.34-24.58 107.64-27.85 110.02-30.35 112.39-32.85 115.74-34.25 119.09-35.65 123.24-35.65L123.24-35.65Q127.39-35.65 130.74-34.25 134.09-32.85 136.47-30.35 138.84-27.85 140.14-24.58 141.44-21.3 141.44-17.55L141.44-17.55Q141.44-13.8 140.14-10.5 138.84-7.2 136.47-4.7 134.09-2.2 130.74-0.78 127.39 0.65 123.24 0.65ZM123.24-3.6L123.24-3.6Q126.09-3.6 128.54-4.65 130.99-5.7 132.81-7.6 134.64-9.5 135.64-12.03 136.64-14.55 136.64-17.55L136.64-17.55Q136.64-20.5 135.64-23.05 134.64-25.6 132.81-27.48 130.99-29.35 128.54-30.38 126.09-31.4 123.24-31.4L123.24-31.4Q120.34-31.4 117.89-30.38 115.44-29.35 113.64-27.48 111.84-25.6 110.84-23.08 109.84-20.55 109.84-17.55L109.84-17.55Q109.84-14.55 110.84-12.03 111.84-9.5 113.64-7.6 115.44-5.7 117.89-4.65 120.34-3.6 123.24-3.6ZM159.14 0.6L159.14 0.6Q155.69 0.6 152.96-0.83 150.24-2.25 148.71-4.8 147.19-7.35 147.19-10.75L147.19-10.75 147.19-25.5 151.84-25.5 151.84-10.8Q151.84-8.5 152.84-6.83 153.84-5.15 155.51-4.25 157.19-3.35 159.09-3.35L159.09-3.35Q161.04-3.35 162.71-4.25 164.39-5.15 165.41-6.83 166.44-8.5 166.44-10.8L166.44-10.8 166.44-25.5 171.09-25.5 171.09-10.75Q171.09-7.35 169.54-4.8 167.99-2.25 165.29-0.83 162.59 0.6 159.14 0.6ZM197.89 0L191.34 0Q187.14 0 183.89-1.58 180.64-3.15 178.81-6.03 176.99-8.9 176.99-12.75L176.99-12.75Q176.99-16.55 178.54-19.58 180.09-22.6 182.84-24.35 185.59-26.1 189.24-26.1L189.24-26.1Q193.19-26.1 195.81-24.4 198.44-22.7 199.74-19.83 201.04-16.95 201.04-13.4L201.04-13.4Q201.04-12.85 201.01-12.25 200.99-11.65 200.89-11.2L200.89-11.2 181.89-11.2Q182.14-8.85 183.44-7.23 184.74-5.6 186.76-4.78 188.79-3.95 191.24-3.95L191.24-3.95 197.89-3.95 197.89 0ZM181.84-14.45L181.84-14.45 196.39-14.45Q196.39-15.4 196.19-16.48 195.99-17.55 195.49-18.57 194.99-19.6 194.16-20.43 193.34-21.25 192.11-21.75 190.89-22.25 189.24-22.25L189.24-22.25Q187.49-22.25 186.16-21.58 184.84-20.9 183.89-19.78 182.94-18.65 182.44-17.25 181.94-15.85 181.84-14.45ZM219.28 0L206.53 0 206.53-3.95 218.73-3.95Q219.93-3.95 220.81-4.48 221.68-5 222.13-5.85 222.58-6.7 222.58-7.65L222.58-7.65Q222.58-8.55 222.18-9.33 221.78-10.1 220.96-10.58 220.13-11.05 218.98-11.05L218.98-11.05 213.83-11.05Q211.38-11.05 209.56-11.88 207.73-12.7 206.71-14.3 205.68-15.9 205.68-18.2L205.68-18.2Q205.68-20.15 206.63-21.8 207.58-23.45 209.28-24.48 210.98-25.5 213.18-25.5L213.18-25.5 224.93-25.5 224.93-21.55 213.63-21.55Q212.08-21.55 211.18-20.6 210.28-19.65 210.28-18.35L210.28-18.35Q210.28-17.1 211.21-16.18 212.13-15.25 213.83-15.25L213.83-15.25 218.73-15.25Q221.48-15.25 223.36-14.38 225.23-13.5 226.21-11.85 227.18-10.2 227.18-7.8L227.18-7.8Q227.18-5.75 226.18-3.98 225.18-2.2 223.41-1.1 221.63 0 219.28 0L219.28 0ZM247.18 0L241.18 0Q237.78 0 235.86-1.95 233.93-3.9 233.93-7.25L233.93-7.25 233.93-31.9 238.53-31.9 238.53-7.55Q238.53-5.9 239.46-4.93 240.38-3.95 242.03-3.95L242.03-3.95 247.18-3.95 247.18 0ZM247.28-21.55L229.53-21.55 229.53-25.5 247.28-25.5 247.28-21.55Z" opacity="1" transform="matrix(1,0,0,1,0,0)" fill="#ffffff" class="wordmark-text-0" data-fill-palette-color="primary" id="text-0"></path></svg></g></svg></g><g transform="matrix(1,0,0,1,75.54431999999998,93.52818603489027)"><svg viewBox="0 0 244.43136 14.76867277179963" height="14.76867277179963" width="244.43136"><g transform="matrix(1,0,0,1,0,0)"><svg width="244.43136" viewBox="3.25 -37.70000076293945 789.469970703125 47.709999084472656" height="14.76867277179963" data-palette-color="#ffffff"><path d="M31.3-17.5L31.3-17.5Q31.3-15.09 30.68-12.85 30.05-10.62 28.91-8.68 27.76-6.74 26.17-5.14 24.58-3.54 22.63-2.39 20.68-1.25 18.44-0.62 16.21 0 13.79 0L13.79 0 3.25 0 3.25-35.01 13.79-35.01Q16.21-35.01 18.44-34.39 20.68-33.76 22.63-32.62 24.58-31.47 26.17-29.87 27.76-28.27 28.91-26.33 30.05-24.39 30.68-22.16 31.3-19.92 31.3-17.5ZM24.29-17.5L24.29-17.5Q24.29-19.68 23.47-21.58 22.66-23.49 21.23-24.91 19.8-26.34 17.88-27.17 15.97-28 13.79-28L13.79-28 10.3-28 10.3-7.01 13.79-7.01Q15.97-7.01 17.88-7.82 19.8-8.64 21.23-10.07 22.66-11.5 23.47-13.42 24.29-15.33 24.29-17.5ZM43.09-33.25L43.09-33.25Q43.09-32.32 42.73-31.52 42.38-30.71 41.77-30.11 41.16-29.52 40.34-29.16 39.52-28.81 38.6-28.81L38.6-28.81Q37.67-28.81 36.85-29.16 36.03-29.52 35.43-30.11 34.84-30.71 34.48-31.52 34.13-32.32 34.13-33.25L34.13-33.25Q34.13-34.16 34.48-34.97 34.84-35.79 35.43-36.39 36.03-36.99 36.85-37.34 37.67-37.7 38.6-37.7L38.6-37.7Q39.52-37.7 40.34-37.34 41.16-36.99 41.77-36.39 42.38-35.79 42.73-34.97 43.09-34.16 43.09-33.25ZM41.94-26.15L41.94 0 35.23 0 35.23-26.15 41.94-26.15ZM61.37 0L61.37 0 46.14 0 46.14-6.64 61.37-6.64Q62.06-6.64 62.54-7.13 63.03-7.62 63.03-8.3L63.03-8.3Q63.03-9.01 62.54-9.23 62.06-9.45 61.37-9.45L61.37-9.45 54.44-9.45Q52.7-9.45 51.19-10.11 49.68-10.77 48.55-11.9 47.43-13.04 46.78-14.55 46.14-16.06 46.14-17.8L46.14-17.8Q46.14-19.53 46.78-21.04 47.43-22.56 48.55-23.68 49.68-24.8 51.19-25.45 52.7-26.1 54.44-26.1L54.44-26.1 67.94-26.1 67.94-19.46 54.44-19.46Q53.75-19.46 53.27-18.97 52.78-18.48 52.78-17.8L52.78-17.8Q52.78-17.09 53.27-16.59 53.75-16.09 54.44-16.09L54.44-16.09 61.37-16.09Q63.08-16.09 64.59-15.52 66.11-14.94 67.23-13.92 68.35-12.89 69.01-11.45 69.67-10.01 69.67-8.3L69.67-8.3Q69.67-6.57 69.01-5.07 68.35-3.56 67.23-2.43 66.11-1.29 64.59-0.65 63.08 0 61.37 0ZM96.06-20.95L96.06-20.95 91.18-16.04Q90.81-17.07 90.18-17.88 89.54-18.7 88.75-19.26 87.96-19.82 87.03-20.12 86.1-20.41 85.12-20.41L85.12-20.41Q83.76-20.41 82.55-19.85 81.34-19.29 80.45-18.27 79.56-17.26 79.05-15.87 78.53-14.48 78.53-12.79L78.53-12.79Q78.53-11.43 79.05-10.23 79.56-9.03 80.45-8.13 81.34-7.23 82.55-6.71 83.76-6.2 85.12-6.2L85.12-6.2Q86.1-6.2 87-6.47 87.91-6.74 88.7-7.24 89.49-7.74 90.12-8.46 90.74-9.18 91.13-10.06L91.13-10.06 96.01-5.15Q95.09-3.83 93.88-2.78 92.67-1.73 91.26-1 89.86-0.27 88.31 0.11 86.76 0.49 85.12 0.49L85.12 0.49Q82.37 0.49 79.94-0.55 77.51-1.59 75.69-3.39 73.87-5.2 72.82-7.62 71.77-10.03 71.77-12.79L71.77-12.79Q71.77-15.8 72.82-18.41 73.87-21.02 75.69-22.96 77.51-24.9 79.94-26.03 82.37-27.15 85.12-27.15L85.12-27.15Q86.76-27.15 88.33-26.73 89.91-26.32 91.34-25.52 92.77-24.73 93.97-23.58 95.18-22.44 96.06-20.95ZM124.18-13.31L124.18-13.31Q124.18-10.38 123.13-7.85 122.08-5.32 120.28-3.48 118.47-1.64 116.04-0.57 113.61 0.49 110.83 0.49L110.83 0.49Q108.07 0.49 105.64-0.57 103.21-1.64 101.39-3.48 99.57-5.32 98.53-7.85 97.48-10.38 97.48-13.31L97.48-13.31Q97.48-16.28 98.53-18.82 99.57-21.36 101.39-23.21 103.21-25.05 105.64-26.1 108.07-27.15 110.83-27.15L110.83-27.15Q113.61-27.15 116.04-26.16 118.47-25.17 120.28-23.35 122.08-21.53 123.13-18.98 124.18-16.43 124.18-13.31ZM117.47-13.31L117.47-13.31Q117.47-14.92 116.95-16.22 116.42-17.53 115.52-18.47 114.61-19.41 113.41-19.91 112.2-20.41 110.83-20.41L110.83-20.41Q109.46-20.41 108.25-19.91 107.05-19.41 106.15-18.47 105.26-17.53 104.75-16.22 104.24-14.92 104.24-13.31L104.24-13.31Q104.24-11.79 104.75-10.5 105.26-9.2 106.15-8.25 107.05-7.3 108.25-6.75 109.46-6.2 110.83-6.2L110.83-6.2Q112.2-6.2 113.41-6.71 114.61-7.23 115.52-8.15 116.42-9.08 116.95-10.4 117.47-11.72 117.47-13.31ZM141.22 0L134.53 0 124.57-26.15 132.17-26.15 137.88-9.84 143.57-26.15 151.18-26.15 141.22 0ZM175.86-21.46L163.36-6.4Q163.75-6.27 164.15-6.24 164.54-6.2 164.93-6.2L164.93-6.2Q165.9-6.2 166.81-6.47 167.71-6.74 168.5-7.24 169.3-7.74 169.92-8.46 170.54-9.18 170.93-10.06L170.93-10.06 175.82-5.15Q174.89-3.83 173.68-2.78 172.47-1.73 171.07-1 169.66-0.27 168.11 0.11 166.56 0.49 164.93 0.49L164.93 0.49Q162.17 0.49 159.74-0.54 157.31-1.56 155.49-3.39 153.67-5.22 152.62-7.75 151.57-10.28 151.57-13.31L151.57-13.31Q151.57-16.41 152.62-18.97 153.67-21.53 155.49-23.34 157.31-25.15 159.74-26.15 162.17-27.15 164.93-27.15L164.93-27.15Q166.56-27.15 168.12-26.76 169.69-26.37 171.09-25.63 172.49-24.9 173.72-23.84 174.94-22.78 175.86-21.46L175.86-21.46ZM159.02-9.84L166.78-20.14Q166.32-20.31 165.87-20.36 165.41-20.41 164.93-20.41L164.93-20.41Q163.56-20.41 162.35-19.91 161.14-19.41 160.25-18.48 159.36-17.55 158.85-16.25 158.33-14.94 158.33-13.31L158.33-13.31Q158.33-12.94 158.37-12.48 158.41-12.01 158.49-11.54 158.58-11.06 158.7-10.62 158.82-10.18 159.02-9.84L159.02-9.84ZM185.87-14.4L185.87 0 179.21 0 179.21-26.15 180.82-26.15 183.01-23.05Q184.63-24.51 186.68-25.31 188.73-26.1 190.92-26.1L190.92-26.1 196.81-26.1 196.81-19.46 190.92-19.46Q189.88-19.46 188.95-19.07 188.02-18.68 187.34-17.99 186.65-17.31 186.26-16.38 185.87-15.45 185.87-14.4L185.87-14.4ZM232.06 0L227 0Q224.59 0 222.46-0.92 220.34-1.83 218.74-3.43 217.14-5.03 216.23-7.15 215.31-9.28 215.31-11.69L215.31-11.69 215.31-19.46 212.06-19.46 212.06-26.1 215.31-26.1 215.31-36.55 221.95-36.55 221.95-26.1 232.06-26.1 232.06-19.46 221.95-19.46 221.95-11.69Q221.95-10.64 222.34-9.73 222.73-8.81 223.42-8.13 224.1-7.45 225.03-7.04 225.95-6.64 227-6.64L227-6.64 232.06-6.64 232.06 0ZM242.46-14.94L242.46 0 235.79 0 235.79-36.55 242.46-36.55 242.46-25Q243.65-25.9 244.92-26.28 246.19-26.66 247.51-26.66L247.51-26.66Q249.93-26.66 252.05-25.74 254.17-24.83 255.75-23.23 257.32-21.63 258.24-19.49 259.15-17.36 259.15-14.94L259.15-14.94 259.15 0 252.44 0 252.44-14.94 252.49-14.94Q252.49-15.97 252.1-16.88 251.71-17.8 251.02-18.48 250.34-19.17 249.44-19.56 248.53-19.95 247.51-19.95L247.51-19.95Q246.46-19.95 245.53-19.56 244.6-19.17 243.92-18.48 243.24-17.8 242.85-16.88 242.46-15.97 242.46-14.94L242.46-14.94ZM286.79-21.46L274.29-6.4Q274.68-6.27 275.07-6.24 275.46-6.2 275.85-6.2L275.85-6.2Q276.83-6.2 277.73-6.47 278.63-6.74 279.43-7.24 280.22-7.74 280.84-8.46 281.47-9.18 281.86-10.06L281.86-10.06 286.74-5.15Q285.81-3.83 284.6-2.78 283.4-1.73 281.99-1 280.59-0.27 279.04 0.11 277.49 0.49 275.85 0.49L275.85 0.49Q273.09 0.49 270.66-0.54 268.23-1.56 266.42-3.39 264.6-5.22 263.55-7.75 262.5-10.28 262.5-13.31L262.5-13.31Q262.5-16.41 263.55-18.97 264.6-21.53 266.42-23.34 268.23-25.15 270.66-26.15 273.09-27.15 275.85-27.15L275.85-27.15Q277.49-27.15 279.05-26.76 280.61-26.37 282.02-25.63 283.42-24.9 284.64-23.84 285.86-22.78 286.79-21.46L286.79-21.46ZM269.94-9.84L277.71-20.14Q277.24-20.31 276.79-20.36 276.34-20.41 275.85-20.41L275.85-20.41Q274.48-20.41 273.28-19.91 272.07-19.41 271.18-18.48 270.29-17.55 269.77-16.25 269.26-14.94 269.26-13.31L269.26-13.31Q269.26-12.94 269.3-12.48 269.33-12.01 269.42-11.54 269.5-11.06 269.63-10.62 269.75-10.18 269.94-9.84L269.94-9.84ZM339.57-35.01L339.57-10.01Q339.57-7.84 338.75-5.92 337.93-4 336.5-2.58 335.07-1.15 333.16-0.33 331.24 0.49 329.07 0.49L329.07 0.49Q327.12 0.49 325.32-0.2 323.53-0.88 322.09-2.2L322.09-2.2Q320.65-0.88 318.84-0.2 317.03 0.49 315.08 0.49L315.08 0.49Q312.91 0.49 310.99-0.33 309.07-1.15 307.65-2.58 306.22-4 305.4-5.92 304.58-7.84 304.58-10.01L304.58-10.01 304.58-35.01 311.59-35.01 311.59-10.01Q311.59-9.28 311.86-8.63 312.13-7.98 312.6-7.51 313.08-7.03 313.71-6.76 314.35-6.49 315.08-6.49L315.08-6.49Q315.81-6.49 316.45-6.76 317.08-7.03 317.56-7.51 318.03-7.98 318.3-8.63 318.57-9.28 318.57-10.01L318.57-10.01 318.57-35.01 325.58-35.01 325.58-10.01Q325.58-9.28 325.85-8.63 326.11-7.98 326.59-7.51 327.07-7.03 327.7-6.76 328.34-6.49 329.07-6.49L329.07-6.49Q329.8-6.49 330.44-6.76 331.07-7.03 331.55-7.51 332.02-7.98 332.3-8.63 332.58-9.28 332.58-10.01L332.58-10.01 332.58-35.01 339.57-35.01ZM370.03-13.31L370.03-13.31Q370.03-10.38 368.98-7.85 367.93-5.32 366.13-3.48 364.32-1.64 361.89-0.57 359.46 0.49 356.68 0.49L356.68 0.49Q353.92 0.49 351.49-0.57 349.06-1.64 347.24-3.48 345.42-5.32 344.37-7.85 343.32-10.38 343.32-13.31L343.32-13.31Q343.32-16.28 344.37-18.82 345.42-21.36 347.24-23.21 349.06-25.05 351.49-26.1 353.92-27.15 356.68-27.15L356.68-27.15Q359.46-27.15 361.89-26.16 364.32-25.17 366.13-23.35 367.93-21.53 368.98-18.98 370.03-16.43 370.03-13.31ZM363.32-13.31L363.32-13.31Q363.32-14.92 362.79-16.22 362.27-17.53 361.37-18.47 360.46-19.41 359.25-19.91 358.05-20.41 356.68-20.41L356.68-20.41Q355.31-20.41 354.1-19.91 352.89-19.41 352-18.47 351.11-17.53 350.6-16.22 350.09-14.92 350.09-13.31L350.09-13.31Q350.09-11.79 350.6-10.5 351.11-9.2 352-8.25 352.89-7.3 354.1-6.75 355.31-6.2 356.68-6.2L356.68-6.2Q358.05-6.2 359.25-6.71 360.46-7.23 361.37-8.15 362.27-9.08 362.79-10.4 363.32-11.72 363.32-13.31ZM380.38-14.4L380.38 0 373.72 0 373.72-26.15 375.33-26.15 377.53-23.05Q379.14-24.51 381.19-25.31 383.24-26.1 385.44-26.1L385.44-26.1 391.32-26.1 391.32-19.46 385.44-19.46Q384.39-19.46 383.46-19.07 382.53-18.68 381.85-17.99 381.16-17.31 380.77-16.38 380.38-15.45 380.38-14.4L380.38-14.4ZM401.13-36.55L401.13 0 394.42 0 394.42-36.55 401.13-36.55ZM431.48-36.55L431.48 0 429.86 0 427.28-3.59Q426.32-2.73 425.26-1.99 424.2-1.25 423.03-0.7 421.86-0.15 420.62 0.17 419.39 0.49 418.12 0.49L418.12 0.49Q415.36 0.49 412.93-0.55 410.5-1.59 408.69-3.43 406.87-5.27 405.82-7.8 404.77-10.33 404.77-13.31L404.77-13.31Q404.77-16.26 405.82-18.8 406.87-21.34 408.69-23.19 410.5-25.05 412.93-26.1 415.36-27.15 418.12-27.15L418.12-27.15Q419-27.15 419.94-27 420.88-26.86 421.77-26.53 422.66-26.2 423.44-25.66 424.23-25.12 424.76-24.34L424.76-24.34 424.76-36.55 431.48-36.55ZM424.76-13.31L424.76-13.31Q424.76-14.67 424.24-15.95 423.71-17.24 422.81-18.23 421.91-19.21 420.7-19.81 419.49-20.41 418.12-20.41L418.12-20.41Q416.75-20.41 415.55-19.92 414.34-19.43 413.45-18.52 412.56-17.6 412.04-16.28 411.53-14.97 411.53-13.31L411.53-13.31Q411.53-11.87 412.04-10.57 412.56-9.28 413.45-8.3 414.34-7.32 415.55-6.76 416.75-6.2 418.12-6.2L418.12-6.2Q419.49-6.2 420.7-6.8 421.91-7.4 422.81-8.39 423.71-9.38 424.24-10.66 424.76-11.94 424.76-13.31ZM465.94-28L465.94 0 458.96 0 458.96-28 448.44-28 448.44-35.01 476.44-35.01 476.44-28 465.94-28ZM486.11-14.94L486.11 0 479.44 0 479.44-36.55 486.11-36.55 486.11-25Q487.3-25.9 488.57-26.28 489.84-26.66 491.16-26.66L491.16-26.66Q493.58-26.66 495.7-25.74 497.83-24.83 499.4-23.23 500.98-21.63 501.89-19.49 502.81-17.36 502.81-14.94L502.81-14.94 502.81 0 496.09 0 496.09-14.94 496.14-14.94Q496.14-15.97 495.75-16.88 495.36-17.8 494.68-18.48 493.99-19.17 493.09-19.56 492.19-19.95 491.16-19.95L491.16-19.95Q490.11-19.95 489.18-19.56 488.26-19.17 487.57-18.48 486.89-17.8 486.5-16.88 486.11-15.97 486.11-14.94L486.11-14.94ZM514.21-14.4L514.21 0 507.54 0 507.54-26.15 509.15-26.15 511.35-23.05Q512.96-24.51 515.01-25.31 517.06-26.1 519.26-26.1L519.26-26.1 525.14-26.1 525.14-19.46 519.26-19.46Q518.21-19.46 517.28-19.07 516.35-18.68 515.67-17.99 514.99-17.31 514.6-16.38 514.21-15.45 514.21-14.4L514.21-14.4ZM553.02-13.31L553.02-13.31Q553.02-10.38 551.97-7.85 550.92-5.32 549.11-3.48 547.31-1.64 544.88-0.57 542.45 0.49 539.67 0.49L539.67 0.49Q536.91 0.49 534.48-0.57 532.05-1.64 530.23-3.48 528.41-5.32 527.36-7.85 526.31-10.38 526.31-13.31L526.31-13.31Q526.31-16.28 527.36-18.82 528.41-21.36 530.23-23.21 532.05-25.05 534.48-26.1 536.91-27.15 539.67-27.15L539.67-27.15Q542.45-27.15 544.88-26.16 547.31-25.17 549.11-23.35 550.92-21.53 551.97-18.98 553.02-16.43 553.02-13.31ZM546.31-13.31L546.31-13.31Q546.31-14.92 545.78-16.22 545.26-17.53 544.35-18.47 543.45-19.41 542.24-19.91 541.03-20.41 539.67-20.41L539.67-20.41Q538.3-20.41 537.09-19.91 535.88-19.41 534.99-18.47 534.1-17.53 533.59-16.22 533.07-14.92 533.07-13.31L533.07-13.31Q533.07-11.79 533.59-10.5 534.1-9.2 534.99-8.25 535.88-7.3 537.09-6.75 538.3-6.2 539.67-6.2L539.67-6.2Q541.03-6.2 542.24-6.71 543.45-7.23 544.35-8.15 545.26-9.08 545.78-10.4 546.31-11.72 546.31-13.31ZM578.12 0L575.92-3.05Q575.11-2.32 574.2-1.67 573.28-1.03 572.28-0.55 571.28-0.07 570.22 0.21 569.16 0.49 568.06 0.49L568.06 0.49Q565.64 0.49 563.52-0.37 561.39-1.22 559.79-2.8 558.19-4.37 557.28-6.63 556.36-8.89 556.36-11.69L556.36-11.69 556.36-26.15 563-26.15 563-11.69Q563-10.38 563.41-9.34 563.81-8.3 564.49-7.59 565.18-6.88 566.09-6.52 567.01-6.15 568.06-6.15L568.06-6.15Q569.08-6.15 570-6.63 570.91-7.1 571.6-7.89 572.28-8.67 572.67-9.66 573.06-10.64 573.06-11.69L573.06-11.69 573.06-26.15 579.73-26.15 579.73 0 578.12 0ZM603.41-13.31L603.41-13.31Q603.41-14.67 602.88-15.95 602.36-17.24 601.45-18.23 600.55-19.21 599.34-19.81 598.13-20.41 596.77-20.41L596.77-20.41Q595.4-20.41 594.19-19.95 592.98-19.48 592.09-18.58 591.2-17.68 590.69-16.35 590.17-15.01 590.17-13.31L590.17-13.31Q590.17-11.67 590.69-10.36 591.2-9.06 592.09-8.13 592.98-7.2 594.19-6.7 595.4-6.2 596.77-6.2L596.77-6.2Q598.13-6.2 599.34-6.8 600.55-7.4 601.45-8.39 602.36-9.38 602.88-10.66 603.41-11.94 603.41-13.31ZM610.12-26.1L610.12-3.3Q610.12-0.54 609.07 1.88 608.02 4.3 606.2 6.1 604.38 7.91 601.95 8.96 599.52 10.01 596.77 10.01L596.77 10.01 593.42 9.96 593.42 3.3 596.72 3.34Q598.28 3.34 599.38 2.94 600.48 2.54 601.23 1.84 601.99 1.15 602.44 0.24 602.89-0.66 603.16-1.66L603.16-1.66Q602.77-1.03 602.04-0.62 601.31-0.22 600.42 0.04 599.52 0.29 598.56 0.39 597.6 0.49 596.77 0.49L596.77 0.49Q594.01 0.49 591.58-0.46 589.15-1.42 587.33-3.19 585.51-4.96 584.46-7.52 583.41-10.08 583.41-13.31L583.41-13.31Q583.41-16.26 584.46-18.8 585.51-21.34 587.33-23.19 589.15-25.05 591.58-26.1 594.01-27.15 596.77-27.15L596.77-27.15Q598.04-27.15 599.28-26.83 600.53-26.51 601.7-25.95 602.87-25.39 603.93-24.63 604.99-23.88 605.92-23L605.92-23 608.51-26.1 610.12-26.1ZM621.86-14.94L621.86 0 615.2 0 615.2-36.55 621.86-36.55 621.86-25Q623.06-25.9 624.33-26.28 625.6-26.66 626.92-26.66L626.92-26.66Q629.33-26.66 631.46-25.74 633.58-24.83 635.15-23.23 636.73-21.63 637.65-19.49 638.56-17.36 638.56-14.94L638.56-14.94 638.56 0 631.85 0 631.85-14.94 631.9-14.94Q631.9-15.97 631.5-16.88 631.11-17.8 630.43-18.48 629.75-19.17 628.84-19.56 627.94-19.95 626.92-19.95L626.92-19.95Q625.87-19.95 624.94-19.56 624.01-19.17 623.33-18.48 622.64-17.8 622.25-16.88 621.86-15.97 621.86-14.94L621.86-14.94ZM665-13.99L665 0 657.99 0 657.99-35.01 682.5-35.01 682.5-28 665-28 665-21 675.49-21 675.49-13.99 665-13.99ZM692.09-36.55L692.09 0 685.38 0 685.38-36.55 692.09-36.55ZM722.49-26.1L722.49 0 720.87 0 718.29-3.59Q717.33-2.73 716.27-1.99 715.21-1.25 714.04-0.7 712.87-0.15 711.63 0.17 710.4 0.49 709.13 0.49L709.13 0.49Q706.37 0.49 703.94-0.44 701.51-1.37 699.7-3.14 697.88-4.91 696.83-7.47 695.78-10.03 695.78-13.31L695.78-13.31Q695.78-16.36 696.83-18.91 697.88-21.46 699.7-23.29 701.51-25.12 703.94-26.14 706.37-27.15 709.13-27.15L709.13-27.15Q710.4-27.15 711.65-26.83 712.89-26.51 714.06-25.95 715.24-25.39 716.3-24.63 717.36-23.88 718.29-23L718.29-23 720.87-26.1 722.49-26.1ZM715.77-13.31L715.77-13.31Q715.77-14.67 715.25-15.95 714.72-17.24 713.82-18.23 712.92-19.21 711.71-19.81 710.5-20.41 709.13-20.41L709.13-20.41Q707.76-20.41 706.56-19.95 705.35-19.48 704.46-18.58 703.57-17.68 703.05-16.35 702.54-15.01 702.54-13.31L702.54-13.31Q702.54-11.6 703.05-10.27 703.57-8.94 704.46-8.03 705.35-7.13 706.56-6.67 707.76-6.2 709.13-6.2L709.13-6.2Q710.5-6.2 711.71-6.8 712.92-7.4 713.82-8.39 714.72-9.38 715.25-10.66 715.77-11.94 715.77-13.31ZM746.17-13.31L746.17-13.31Q746.17-14.67 745.64-15.95 745.12-17.24 744.21-18.23 743.31-19.21 742.1-19.81 740.89-20.41 739.52-20.41L739.52-20.41Q738.16-20.41 736.95-19.95 735.74-19.48 734.85-18.58 733.96-17.68 733.45-16.35 732.93-15.01 732.93-13.31L732.93-13.31Q732.93-11.67 733.45-10.36 733.96-9.06 734.85-8.13 735.74-7.2 736.95-6.7 738.16-6.2 739.52-6.2L739.52-6.2Q740.89-6.2 742.1-6.8 743.31-7.4 744.21-8.39 745.12-9.38 745.64-10.66 746.17-11.94 746.17-13.31ZM752.88-26.1L752.88-3.3Q752.88-0.54 751.83 1.88 750.78 4.3 748.96 6.1 747.14 7.91 744.71 8.96 742.28 10.01 739.52 10.01L739.52 10.01 736.18 9.96 736.18 3.3 739.48 3.34Q741.04 3.34 742.14 2.94 743.24 2.54 743.99 1.84 744.75 1.15 745.2 0.24 745.65-0.66 745.92-1.66L745.92-1.66Q745.53-1.03 744.8-0.62 744.07-0.22 743.17 0.04 742.28 0.29 741.32 0.39 740.35 0.49 739.52 0.49L739.52 0.49Q736.77 0.49 734.34-0.46 731.91-1.42 730.09-3.19 728.27-4.96 727.22-7.52 726.17-10.08 726.17-13.31L726.17-13.31Q726.17-16.26 727.22-18.8 728.27-21.34 730.09-23.19 731.91-25.05 734.34-26.1 736.77-27.15 739.52-27.15L739.52-27.15Q740.79-27.15 742.04-26.83 743.28-26.51 744.46-25.95 745.63-25.39 746.69-24.63 747.75-23.88 748.68-23L748.68-23 751.27-26.1 752.88-26.1ZM772.31 0L772.31 0 757.08 0 757.08-6.64 772.31-6.64Q772.99-6.64 773.48-7.13 773.97-7.62 773.97-8.3L773.97-8.3Q773.97-9.01 773.48-9.23 772.99-9.45 772.31-9.45L772.31-9.45 765.38-9.45Q763.64-9.45 762.13-10.11 760.62-10.77 759.49-11.9 758.37-13.04 757.72-14.55 757.08-16.06 757.08-17.8L757.08-17.8Q757.08-19.53 757.72-21.04 758.37-22.56 759.49-23.68 760.62-24.8 762.13-25.45 763.64-26.1 765.38-26.1L765.38-26.1 778.88-26.1 778.88-19.46 765.38-19.46Q764.69-19.46 764.2-18.97 763.72-18.48 763.72-17.8L763.72-17.8Q763.72-17.09 764.2-16.59 764.69-16.09 765.38-16.09L765.38-16.09 772.31-16.09Q774.02-16.09 775.53-15.52 777.05-14.94 778.17-13.92 779.29-12.89 779.95-11.45 780.61-10.01 780.61-8.3L780.61-8.3Q780.61-6.57 779.95-5.07 779.29-3.56 778.17-2.43 777.05-1.29 775.53-0.65 774.02 0 772.31 0ZM792.72-35.01L791.2-8.64 785.76-8.64 784.27-35.01 792.72-35.01ZM792.67-2.49L792.67-2.49Q792.67-1.61 792.34-0.84 792.01-0.07 791.45 0.49 790.89 1.05 790.13 1.38 789.37 1.71 788.52 1.71L788.52 1.71Q787.64 1.71 786.88 1.38 786.13 1.05 785.55 0.49 784.98-0.07 784.65-0.84 784.32-1.61 784.32-2.49L784.32-2.49Q784.32-3.34 784.65-4.1 784.98-4.86 785.55-5.42 786.13-5.98 786.88-6.31 787.64-6.64 788.52-6.64L788.52-6.64Q789.37-6.64 790.13-6.31 790.89-5.98 791.45-5.42 792.01-4.86 792.34-4.1 792.67-3.34 792.67-2.49Z" opacity="1" transform="matrix(1,0,0,1,0,0)" fill="#ffffff" class="slogan-text-1" data-fill-palette-color="secondary" id="text-1"></path></svg></g></svg></g></svg></g></svg></g><g transform="matrix(1,0,0,1,84.24265683375926,0)"><svg viewBox="0 0 227.03468633248147 227.03468633248147" height="227.03468633248147" width="227.03468633248147"><g><svg></svg></g><g id="icon-0"><svg viewBox="0 0 227.03468633248147 227.03468633248147" height="227.03468633248147" width="227.03468633248147"><g><path d="M0 113.517c0-62.694 50.823-113.517 113.517-113.517 62.694 0 113.517 50.823 113.518 113.517 0 62.694-50.823 113.517-113.518 113.518-62.694 0-113.517-50.823-113.517-113.518zM113.517 220.211c58.925 0 106.694-47.768 106.694-106.694 0-58.925-47.768-106.694-106.694-106.693-58.925 0-106.694 47.768-106.693 106.693 0 58.925 47.768 106.694 106.693 106.694z" data-fill-palette-color="accent" fill="#ffffff" stroke="transparent"></path><ellipse rx="112.38216973457833" ry="112.38216973457833" cx="113.51734316624074" cy="113.51734316624074" fill="#ffffff" stroke="transparent" stroke-width="0" fill-opacity="1" data-fill-palette-color="accent"></ellipse></g><g transform="matrix(1,0,0,1,48.09744982506669,58.25358581168242)"><svg viewBox="0 0 130.8397866823481 110.52751470911663" height="110.52751470911663" width="130.8397866823481"><g><svg xmlns="http://www.w3.org/2000/svg" xmlns:xlink="http://www.w3.org/1999/xlink" version="1.1" x="0" y="0" viewBox="4.911998748779297 11.911998748779297 90.17500305175781 76.17575073242188" enable-background="new 0 0 100 100" xml:space="preserve" height="110.52751470911663" width="130.8397866823481" class="icon-y-0" data-fill-palette-color="quaternary" id="y-0"><g fill="#4b91f1" data-fill-palette-color="quaternary"><path d="M50.001 55.905c-1.76 0-3.188-1.426-3.188-3.186v-7.183c0-5.82 6.945-9.843 7.737-10.282 2.788-1.598 4.543-4.624 4.543-7.876 0-5.014-4.079-9.093-9.093-9.093s-9.094 4.079-9.094 9.093c0 1.76-1.426 3.187-3.186 3.187s-3.186-1.427-3.186-3.187c0-8.528 6.938-15.466 15.465-15.466s15.467 6.938 15.467 15.466c0 5.53-2.983 10.674-7.786 13.427-1.854 1.042-4.494 3.311-4.494 4.731v7.183C53.188 54.479 51.76 55.905 50.001 55.905z" fill="#4b91f1" data-fill-palette-color="quaternary"></path></g><g fill="#4b91f1" data-fill-palette-color="quaternary"><circle cx="50.001" cy="63.493" r="4.977" fill="#4b91f1" data-fill-palette-color="quaternary"></circle></g><g fill="#4b91f1" data-fill-palette-color="quaternary"><path d="M50.001 20.214L49.2 19.923c-0.916 0.098-1.779 0.366-2.566 0.763l3.367 1.223 3.365-1.224c-0.787-0.397-1.648-0.665-2.563-0.763L50.001 20.214z" fill="#4b91f1" data-fill-palette-color="quaternary"></path><path d="M94.04 20.412l-21.748-7.908c-0.057-0.021-0.113-0.035-0.173-0.047l-0.179-0.036c-0.046-0.006-0.092-0.008-0.138-0.008l-0.24 0.007c-0.063 0.007-0.124 0.021-0.185 0.037l-8.967 3.254c0.387 0.41 0.751 0.839 1.097 1.287l8.209-2.985c0 0 0.009-0.002 0.027-0.007l21.751 7.904-0.002 64.583-21.745-7.908-21.743 7.906-21.752-7.906L6.506 86.493V21.91l21.742-7.904 8.245 2.996c0.347-0.451 0.714-0.884 1.104-1.297l-8.799-3.2c-0.057-0.021-0.115-0.035-0.174-0.047l-0.179-0.036c-0.046-0.006-0.091-0.008-0.138-0.008l-0.24 0.007c-0.063 0.007-0.125 0.021-0.186 0.038l-21.92 7.955c-0.627 0.228-1.049 0.83-1.049 1.497v64.583c0 0.52 0.254 1.007 0.678 1.304 0.418 0.296 0.965 0.37 1.46 0.193l21.202-7.71 21.206 7.711 0.126 0.038c0.275 0.076 0.544 0.078 0.83 0l21.333-7.749 21.205 7.711c0.175 0.063 0.358 0.095 0.542 0.095 0.33 0 0.646-0.099 0.913-0.288 0.426-0.298 0.68-0.785 0.68-1.305V21.91C95.088 21.243 94.666 20.641 94.04 20.412z" fill="#4b91f1" data-fill-palette-color="quaternary"></path></g></svg></g></svg></g></svg></g></svg></g><g></g></svg></g><defs></defs></svg><rect width="263.49728901381405" height="247.2" fill="none" stroke="none" visibility="hidden"></rect></g></svg>
